<svg width="179" height="41" viewBox="0 0 179 41" fill="none" xmlns="http://www.w3.org/2000/svg">
<path d="M13.0909 11.1875C12.9716 10.7727 12.804 10.4062 12.5881 10.0881C12.3722 9.7642 12.108 9.49148 11.7955 9.26989C11.4886 9.04261 11.1364 8.86932 10.7386 8.75C10.3466 8.63068 9.91193 8.57102 9.43466 8.57102C8.54261 8.57102 7.75852 8.79261 7.08239 9.23579C6.41193 9.67898 5.8892 10.3239 5.5142 11.1705C5.1392 12.0114 4.9517 13.0398 4.9517 14.2557C4.9517 15.4716 5.13636 16.5057 5.50568 17.358C5.875 18.2102 6.39773 18.8608 7.07386 19.3097C7.75 19.7528 8.5483 19.9744 9.46875 19.9744C10.304 19.9744 11.017 19.8267 11.608 19.5312C12.2045 19.2301 12.6591 18.8068 12.9716 18.2614C13.2898 17.7159 13.4489 17.071 13.4489 16.3267L14.1989 16.4375H9.69886V13.6591H17.0028V15.858C17.0028 17.392 16.679 18.7102 16.0312 19.8125C15.3835 20.9091 14.4915 21.7557 13.3551 22.3523C12.2188 22.9432 10.9176 23.2386 9.4517 23.2386C7.81534 23.2386 6.37784 22.8778 5.1392 22.1562C3.90057 21.429 2.93466 20.3977 2.24148 19.0625C1.55398 17.7216 1.21023 16.1307 1.21023 14.2898C1.21023 12.875 1.41477 11.6136 1.82386 10.5057C2.23864 9.39205 2.81818 8.44886 3.5625 7.67614C4.30682 6.90341 5.1733 6.31534 6.16193 5.91193C7.15057 5.50852 8.22159 5.30682 9.375 5.30682C10.3636 5.30682 11.2841 5.4517 12.1364 5.74148C12.9886 6.02557 13.7443 6.42898 14.4034 6.9517C15.0682 7.47443 15.6108 8.09659 16.0312 8.81818C16.4517 9.53409 16.7216 10.3239 16.8409 11.1875H13.0909ZM23.4396 23.2472C22.6044 23.2472 21.8601 23.1023 21.2067 22.8125C20.5533 22.517 20.0362 22.0824 19.6555 21.5085C19.2805 20.929 19.093 20.2074 19.093 19.3438C19.093 18.6165 19.2266 18.0057 19.4936 17.5114C19.7607 17.017 20.1243 16.6193 20.5845 16.3182C21.0447 16.017 21.5675 15.7898 22.1527 15.6364C22.7436 15.483 23.3629 15.375 24.0107 15.3125C24.772 15.233 25.3857 15.1591 25.8516 15.0909C26.3175 15.017 26.6555 14.9091 26.8658 14.767C27.076 14.625 27.1811 14.4148 27.1811 14.1364V14.0852C27.1811 13.5455 27.0107 13.1278 26.6697 12.8324C26.3345 12.5369 25.8572 12.3892 25.2379 12.3892C24.5845 12.3892 24.0646 12.5341 23.6783 12.8239C23.2919 13.108 23.0362 13.4659 22.9112 13.8977L19.5533 13.625C19.7237 12.8295 20.0589 12.142 20.5589 11.5625C21.0589 10.9773 21.7038 10.5284 22.4936 10.2159C23.2891 9.89773 24.2095 9.73864 25.255 9.73864C25.9822 9.73864 26.6783 9.82386 27.343 9.99432C28.0135 10.1648 28.6072 10.429 29.1243 10.7869C29.647 11.1449 30.0589 11.6051 30.3601 12.1676C30.6612 12.7244 30.8118 13.392 30.8118 14.1705V23H27.3686V21.1847H27.2663C27.0561 21.5938 26.7749 21.9545 26.4226 22.267C26.0703 22.5739 25.647 22.8153 25.1527 22.9915C24.6584 23.1619 24.0874 23.2472 23.4396 23.2472ZM24.4794 20.7415C25.0135 20.7415 25.4851 20.6364 25.8942 20.4261C26.3033 20.2102 26.6243 19.9205 26.8572 19.5568C27.0902 19.1932 27.2067 18.7812 27.2067 18.321V16.9318C27.093 17.0057 26.9368 17.0739 26.7379 17.1364C26.5447 17.1932 26.326 17.2472 26.0817 17.2983C25.8374 17.3437 25.593 17.3864 25.3487 17.4261C25.1044 17.4602 24.8828 17.4915 24.6839 17.5199C24.2578 17.5824 23.8857 17.6818 23.5675 17.8182C23.2493 17.9545 23.0021 18.1392 22.826 18.3722C22.6499 18.5994 22.5618 18.8835 22.5618 19.2244C22.5618 19.7188 22.7408 20.0966 23.0987 20.358C23.4624 20.6136 23.9226 20.7415 24.4794 20.7415ZM33.6967 23V5.54545H37.3274V12.108H37.4382C37.5973 11.7557 37.8274 11.3977 38.1286 11.0341C38.4354 10.6648 38.8331 10.358 39.3217 10.1136C39.8161 9.86364 40.4297 9.73864 41.1626 9.73864C42.1172 9.73864 42.9979 9.98864 43.8047 10.4886C44.6115 10.983 45.2564 11.7301 45.7393 12.7301C46.2223 13.7244 46.4638 14.9716 46.4638 16.4716C46.4638 17.9318 46.228 19.1648 45.7564 20.1705C45.2905 21.1705 44.6541 21.929 43.8473 22.446C43.0462 22.9574 42.1484 23.2131 41.1541 23.2131C40.4496 23.2131 39.8501 23.0966 39.3558 22.8636C38.8672 22.6307 38.4666 22.3381 38.1541 21.9858C37.8416 21.6278 37.603 21.267 37.4382 20.9034H37.2763V23H33.6967ZM37.2507 16.4545C37.2507 17.233 37.3587 17.9119 37.5746 18.4915C37.7905 19.071 38.103 19.5227 38.5121 19.8466C38.9212 20.1648 39.4183 20.3239 40.0036 20.3239C40.5945 20.3239 41.0945 20.1619 41.5036 19.8381C41.9126 19.5085 42.2223 19.054 42.4325 18.4744C42.6484 17.8892 42.7564 17.2159 42.7564 16.4545C42.7564 15.6989 42.6513 15.0341 42.4411 14.4602C42.2308 13.8864 41.9212 13.4375 41.5121 13.1136C41.103 12.7898 40.6001 12.6278 40.0036 12.6278C39.4126 12.6278 38.9126 12.7841 38.5036 13.0966C38.1001 13.4091 37.7905 13.8523 37.5746 14.4261C37.3587 15 37.2507 15.6761 37.2507 16.4545ZM48.8864 23V9.90909H52.4062V12.1932H52.5426C52.7813 11.3807 53.1818 10.767 53.7443 10.3523C54.3068 9.93182 54.9545 9.72159 55.6875 9.72159C55.8693 9.72159 56.0653 9.73295 56.2756 9.75568C56.4858 9.77841 56.6705 9.80966 56.8295 9.84943V13.071C56.6591 13.0199 56.4233 12.9744 56.1222 12.9347C55.821 12.8949 55.5455 12.875 55.2955 12.875C54.7614 12.875 54.2841 12.9915 53.8636 13.2244C53.4489 13.4517 53.1193 13.7699 52.875 14.179C52.6364 14.5881 52.517 15.0597 52.517 15.5938V23H48.8864ZM58.7067 23V9.90909H62.3374V23H58.7067ZM60.5305 8.22159C59.9908 8.22159 59.5277 8.04261 59.1413 7.68466C58.7607 7.32102 58.5703 6.88636 58.5703 6.38068C58.5703 5.88068 58.7607 5.4517 59.1413 5.09375C59.5277 4.73011 59.9908 4.54829 60.5305 4.54829C61.0703 4.54829 61.5305 4.73011 61.9112 5.09375C62.2976 5.4517 62.4908 5.88068 62.4908 6.38068C62.4908 6.88636 62.2976 7.32102 61.9112 7.68466C61.5305 8.04261 61.0703 8.22159 60.5305 8.22159ZM71.2116 23.2557C69.8651 23.2557 68.706 22.983 67.7344 22.4375C66.7685 21.8864 66.0241 21.108 65.5014 20.1023C64.9787 19.0909 64.7173 17.8949 64.7173 16.5142C64.7173 15.1676 64.9787 13.9858 65.5014 12.9688C66.0241 11.9517 66.7599 11.1591 67.7088 10.5909C68.6634 10.0227 69.7827 9.73864 71.0668 9.73864C71.9304 9.73864 72.7344 9.87784 73.4787 10.1562C74.2287 10.429 74.8821 10.8409 75.4389 11.392C76.0014 11.9432 76.4389 12.6364 76.7514 13.4716C77.0639 14.3011 77.2202 15.2727 77.2202 16.3864V17.3835H66.1662V15.1335H73.8026C73.8026 14.6108 73.6889 14.1477 73.4616 13.7443C73.2344 13.3409 72.919 13.0256 72.5156 12.7983C72.1179 12.5653 71.6548 12.4489 71.1264 12.4489C70.5753 12.4489 70.0866 12.5767 69.6605 12.8324C69.2401 13.0824 68.9105 13.4205 68.6719 13.8466C68.4332 14.267 68.3111 14.7358 68.3054 15.2528V17.392C68.3054 18.0398 68.4247 18.5994 68.6634 19.071C68.9077 19.5426 69.2514 19.9062 69.6946 20.1619C70.1378 20.4176 70.6634 20.5455 71.2713 20.5455C71.6747 20.5455 72.044 20.4886 72.3793 20.375C72.7145 20.2614 73.0014 20.0909 73.2401 19.8636C73.4787 19.6364 73.6605 19.358 73.7855 19.0284L77.1435 19.25C76.973 20.0568 76.6236 20.7614 76.0952 21.3636C75.5724 21.9602 74.8963 22.4261 74.0668 22.7614C73.2429 23.0909 72.2912 23.2557 71.2116 23.2557ZM83.2202 5.54545V23H79.5895V5.54545H83.2202ZM91.7514 5.54545H96.3026L101.109 17.2727H101.314L106.121 5.54545H110.672V23H107.092V11.6392H106.947L102.43 22.9148H99.9929L95.4759 11.5966H95.331V23H91.7514V5.54545ZM119.61 23.2557C118.263 23.2557 117.104 22.983 116.133 22.4375C115.167 21.8864 114.423 21.108 113.9 20.1023C113.377 19.0909 113.116 17.8949 113.116 16.5142C113.116 15.1676 113.377 13.9858 113.9 12.9688C114.423 11.9517 115.158 11.1591 116.107 10.5909C117.062 10.0227 118.181 9.73864 119.465 9.73864C120.329 9.73864 121.133 9.87784 121.877 10.1562C122.627 10.429 123.281 10.8409 123.837 11.392C124.4 11.9432 124.837 12.6364 125.15 13.4716C125.462 14.3011 125.619 15.2727 125.619 16.3864V17.3835H114.565V15.1335H122.201C122.201 14.6108 122.087 14.1477 121.86 13.7443C121.633 13.3409 121.317 13.0256 120.914 12.7983C120.516 12.5653 120.053 12.4489 119.525 12.4489C118.974 12.4489 118.485 12.5767 118.059 12.8324C117.638 13.0824 117.309 13.4205 117.07 13.8466C116.832 14.267 116.71 14.7358 116.704 15.2528V17.392C116.704 18.0398 116.823 18.5994 117.062 19.071C117.306 19.5426 117.65 19.9062 118.093 20.1619C118.536 20.4176 119.062 20.5455 119.67 20.5455C120.073 20.5455 120.442 20.4886 120.778 20.375C121.113 20.2614 121.4 20.0909 121.638 19.8636C121.877 19.6364 122.059 19.358 122.184 19.0284L125.542 19.25C125.371 20.0568 125.022 20.7614 124.494 21.3636C123.971 21.9602 123.295 22.4261 122.465 22.7614C121.641 23.0909 120.69 23.2557 119.61 23.2557ZM127.988 23V9.90909H131.619V23H127.988ZM129.812 8.22159C129.272 8.22159 128.809 8.04261 128.423 7.68466C128.042 7.32102 127.852 6.88636 127.852 6.38068C127.852 5.88068 128.042 5.4517 128.423 5.09375C128.809 4.73011 129.272 4.54829 129.812 4.54829C130.352 4.54829 130.812 4.73011 131.192 5.09375C131.579 5.4517 131.772 5.88068 131.772 6.38068C131.772 6.88636 131.579 7.32102 131.192 7.68466C130.812 8.04261 130.352 8.22159 129.812 8.22159ZM134.527 23V9.90909H138.047V12.1932H138.183C138.422 11.3807 138.822 10.767 139.385 10.3523C139.947 9.93182 140.595 9.72159 141.328 9.72159C141.51 9.72159 141.706 9.73295 141.916 9.75568C142.126 9.77841 142.311 9.80966 142.47 9.84943V13.071C142.3 13.0199 142.064 12.9744 141.763 12.9347C141.462 12.8949 141.186 12.875 140.936 12.875C140.402 12.875 139.925 12.9915 139.504 13.2244C139.089 13.4517 138.76 13.7699 138.516 14.179C138.277 14.5881 138.158 15.0597 138.158 15.5938V23H134.527ZM147.705 23.2472C146.87 23.2472 146.126 23.1023 145.472 22.8125C144.819 22.517 144.302 22.0824 143.921 21.5085C143.546 20.929 143.359 20.2074 143.359 19.3438C143.359 18.6165 143.492 18.0057 143.759 17.5114C144.026 17.017 144.39 16.6193 144.85 16.3182C145.31 16.017 145.833 15.7898 146.418 15.6364C147.009 15.483 147.629 15.375 148.276 15.3125C149.038 15.233 149.651 15.1591 150.117 15.0909C150.583 15.017 150.921 14.9091 151.131 14.767C151.342 14.625 151.447 14.4148 151.447 14.1364V14.0852C151.447 13.5455 151.276 13.1278 150.935 12.8324C150.6 12.5369 150.123 12.3892 149.504 12.3892C148.85 12.3892 148.33 12.5341 147.944 12.8239C147.558 13.108 147.302 13.4659 147.177 13.8977L143.819 13.625C143.989 12.8295 144.325 12.142 144.825 11.5625C145.325 10.9773 145.969 10.5284 146.759 10.2159C147.555 9.89773 148.475 9.73864 149.521 9.73864C150.248 9.73864 150.944 9.82386 151.609 9.99432C152.279 10.1648 152.873 10.429 153.39 10.7869C153.913 11.1449 154.325 11.6051 154.626 12.1676C154.927 12.7244 155.077 13.392 155.077 14.1705V23H151.634V21.1847H151.532C151.322 21.5938 151.04 21.9545 150.688 22.267C150.336 22.5739 149.913 22.8153 149.418 22.9915C148.924 23.1619 148.353 23.2472 147.705 23.2472ZM148.745 20.7415C149.279 20.7415 149.751 20.6364 150.16 20.4261C150.569 20.2102 150.89 19.9205 151.123 19.5568C151.356 19.1932 151.472 18.7812 151.472 18.321V16.9318C151.359 17.0057 151.202 17.0739 151.004 17.1364C150.81 17.1932 150.592 17.2472 150.347 17.2983C150.103 17.3437 149.859 17.3864 149.614 17.4261C149.37 17.4602 149.148 17.4915 148.95 17.5199C148.523 17.5824 148.151 17.6818 147.833 17.8182C147.515 17.9545 147.268 18.1392 147.092 18.3722C146.915 18.5994 146.827 18.8835 146.827 19.2244C146.827 19.7188 147.006 20.0966 147.364 20.358C147.728 20.6136 148.188 20.7415 148.745 20.7415Z" fill="white"/>
<path d="M169.909 22.8182L170.091 17.8182L165.864 20.5L164.773 18.5909L169.227 16.2727L164.773 13.9545L165.864 12.0455L170.091 14.7273L169.909 9.72727H172.091L171.909 14.7273L176.136 12.0455L177.227 13.9545L172.773 16.2727L177.227 18.5909L176.136 20.5L171.909 17.8182L172.091 22.8182H169.909Z" fill="#C41067"/>
</svg>
