<svg width="160" height="35" viewBox="0 0 160 35" fill="none" xmlns="http://www.w3.org/2000/svg">
<path d="M7.125 28.1818C6.15341 28.1818 5.31818 28.0568 4.61932 27.8068C3.92045 27.5625 3.33807 27.2386 2.87216 26.8352C2.41193 26.4375 2.04545 26.0114 1.77273 25.5568L3.375 24.4318C3.55682 24.6705 3.78693 24.9432 4.06534 25.25C4.34375 25.5625 4.72443 25.8324 5.20739 26.0597C5.69602 26.2926 6.33523 26.4091 7.125 26.4091C8.18182 26.4091 9.05398 26.1534 9.74148 25.642C10.429 25.1307 10.7727 24.3295 10.7727 23.2386V20.5795H10.6023C10.4545 20.8182 10.2443 21.1136 9.97159 21.4659C9.70455 21.8125 9.31818 22.1222 8.8125 22.3949C8.3125 22.6619 7.63636 22.7955 6.78409 22.7955C5.72727 22.7955 4.77841 22.5455 3.9375 22.0455C3.10227 21.5455 2.44034 20.8182 1.9517 19.8636C1.46875 18.9091 1.22727 17.75 1.22727 16.3864C1.22727 15.0455 1.46307 13.8778 1.93466 12.8835C2.40625 11.8835 3.0625 11.1108 3.90341 10.5653C4.74432 10.0142 5.71591 9.73864 6.81818 9.73864C7.67045 9.73864 8.34659 9.88068 8.84659 10.1648C9.35227 10.4432 9.73864 10.7614 10.0057 11.1193C10.2784 11.4716 10.4886 11.7614 10.6364 11.9886H10.8409V9.90909H12.7841V23.375C12.7841 24.5 12.5284 25.4148 12.017 26.1193C11.5114 26.8295 10.8295 27.3494 9.97159 27.679C9.11932 28.0142 8.17045 28.1818 7.125 28.1818ZM7.05682 20.9886C7.86364 20.9886 8.54545 20.804 9.10227 20.4347C9.65909 20.0653 10.0824 19.5341 10.3722 18.8409C10.6619 18.1477 10.8068 17.3182 10.8068 16.3523C10.8068 15.4091 10.6648 14.5767 10.3807 13.8551C10.0966 13.1335 9.67614 12.5682 9.11932 12.1591C8.5625 11.75 7.875 11.5455 7.05682 11.5455C6.20455 11.5455 5.49432 11.7614 4.92614 12.1932C4.36364 12.625 3.94034 13.2045 3.65625 13.9318C3.37784 14.6591 3.23864 15.4659 3.23864 16.3523C3.23864 17.2614 3.38068 18.0653 3.66477 18.7642C3.95455 19.4574 4.38068 20.0028 4.94318 20.4006C5.51136 20.7926 6.21591 20.9886 7.05682 20.9886ZM20.3182 23.3068C19.4886 23.3068 18.7358 23.1506 18.0597 22.8381C17.3835 22.5199 16.8466 22.0625 16.4489 21.4659C16.0511 20.8636 15.8523 20.1364 15.8523 19.2841C15.8523 18.5341 16 17.9261 16.2955 17.4602C16.5909 16.9886 16.9858 16.6193 17.4801 16.3523C17.9744 16.0852 18.5199 15.8864 19.1165 15.7557C19.7188 15.6193 20.3239 15.5114 20.9318 15.4318C21.7273 15.3295 22.3722 15.2528 22.8665 15.2017C23.3665 15.1449 23.7301 15.0511 23.9574 14.9205C24.1903 14.7898 24.3068 14.5625 24.3068 14.2386V14.1705C24.3068 13.3295 24.0767 12.6761 23.6165 12.2102C23.1619 11.7443 22.4716 11.5114 21.5455 11.5114C20.5852 11.5114 19.8324 11.7216 19.2869 12.142C18.7415 12.5625 18.358 13.0114 18.1364 13.4886L16.2273 12.8068C16.5682 12.0114 17.0227 11.392 17.5909 10.9489C18.1648 10.5 18.7898 10.1875 19.4659 10.0114C20.1477 9.82955 20.8182 9.73864 21.4773 9.73864C21.8977 9.73864 22.3807 9.78977 22.9261 9.89204C23.4773 9.98864 24.0085 10.1903 24.5199 10.4972C25.0369 10.804 25.4659 11.267 25.8068 11.8864C26.1477 12.5057 26.3182 13.3352 26.3182 14.375V23H24.3068V21.2273H24.2045C24.0682 21.5114 23.8409 21.8153 23.5227 22.1392C23.2045 22.4631 22.7813 22.7386 22.2528 22.9659C21.7244 23.1932 21.0795 23.3068 20.3182 23.3068ZM20.625 21.5C21.4205 21.5 22.0909 21.3438 22.6364 21.0312C23.1875 20.7188 23.6023 20.3153 23.8807 19.821C24.1648 19.3267 24.3068 18.8068 24.3068 18.2614V16.4205C24.2216 16.5227 24.0341 16.6165 23.7443 16.7017C23.4602 16.7812 23.1307 16.8523 22.7557 16.9148C22.3864 16.9716 22.0256 17.0227 21.6733 17.0682C21.3267 17.108 21.0455 17.142 20.8295 17.1705C20.3068 17.2386 19.8182 17.3494 19.3636 17.5028C18.9148 17.6506 18.5511 17.875 18.2727 18.1761C18 18.4716 17.8636 18.875 17.8636 19.3864C17.8636 20.0852 18.1222 20.6136 18.6392 20.9716C19.1619 21.3239 19.8239 21.5 20.625 21.5ZM30.2621 23V5.54545H32.2734V11.9886H32.4439C32.5916 11.7614 32.7962 11.4716 33.0575 11.1193C33.3246 10.7614 33.7053 10.4432 34.1996 10.1648C34.6996 9.88068 35.3757 9.73864 36.228 9.73864C37.3303 9.73864 38.3018 10.0142 39.1428 10.5653C39.9837 11.1165 40.6399 11.8977 41.1115 12.9091C41.5831 13.9205 41.8189 15.1136 41.8189 16.4886C41.8189 17.875 41.5831 19.0767 41.1115 20.0938C40.6399 21.1051 39.9865 21.8892 39.1513 22.446C38.3161 22.9972 37.353 23.2727 36.2621 23.2727C35.4212 23.2727 34.7479 23.1335 34.2422 22.8551C33.7365 22.571 33.3473 22.25 33.0746 21.892C32.8018 21.5284 32.5916 21.2273 32.4439 20.9886H32.2053V23H30.2621ZM32.2393 16.4545C32.2393 17.4432 32.3842 18.3153 32.674 19.071C32.9638 19.821 33.3871 20.4091 33.9439 20.8352C34.5007 21.2557 35.1825 21.4659 35.9893 21.4659C36.8303 21.4659 37.532 21.2443 38.0945 20.8011C38.6626 20.3523 39.0888 19.75 39.3729 18.9943C39.6626 18.233 39.8075 17.3864 39.8075 16.4545C39.8075 15.5341 39.6655 14.7045 39.3814 13.9659C39.103 13.2216 38.6797 12.6335 38.1115 12.2017C37.549 11.7642 36.8416 11.5455 35.9893 11.5455C35.1712 11.5455 34.4837 11.7528 33.9268 12.1676C33.37 12.5767 32.9496 13.1506 32.6655 13.8892C32.3814 14.6222 32.2393 15.4773 32.2393 16.4545ZM44.8956 23V9.90909H46.8388V11.8864H46.9751C47.2138 11.2386 47.6456 10.7131 48.2706 10.3097C48.8956 9.90625 49.6001 9.70454 50.3842 9.70454C50.532 9.70454 50.7166 9.70739 50.9382 9.71307C51.1598 9.71875 51.3274 9.72727 51.4411 9.73864V11.7841C51.3729 11.767 51.2166 11.7415 50.9723 11.7074C50.7337 11.6676 50.4808 11.6477 50.2138 11.6477C49.5774 11.6477 49.0092 11.7812 48.5092 12.0483C48.0149 12.3097 47.6229 12.6733 47.3331 13.1392C47.049 13.5994 46.907 14.125 46.907 14.7159V23H44.8956ZM53.8253 23V9.90909H55.8366V23H53.8253ZM54.848 7.72727C54.456 7.72727 54.1179 7.59375 53.8338 7.3267C53.5554 7.05966 53.4162 6.73864 53.4162 6.36364C53.4162 5.98864 53.5554 5.66761 53.8338 5.40057C54.1179 5.13352 54.456 5 54.848 5C55.2401 5 55.5753 5.13352 55.8537 5.40057C56.1378 5.66761 56.2798 5.98864 56.2798 6.36364C56.2798 6.73864 56.1378 7.05966 55.8537 7.3267C55.5753 7.59375 55.2401 7.72727 54.848 7.72727ZM65.0092 23.2727C63.7479 23.2727 62.6598 22.9943 61.745 22.4375C60.8359 21.875 60.1342 21.0909 59.6399 20.0852C59.1513 19.0739 58.907 17.8977 58.907 16.5568C58.907 15.2159 59.1513 14.0341 59.6399 13.0114C60.1342 11.983 60.8217 11.1818 61.7024 10.608C62.5888 10.0284 63.6229 9.73864 64.8047 9.73864C65.4865 9.73864 66.1598 9.85227 66.8246 10.0795C67.4893 10.3068 68.0945 10.6761 68.6399 11.1875C69.1854 11.6932 69.62 12.3636 69.9439 13.1989C70.2678 14.0341 70.4297 15.0625 70.4297 16.2841V17.1364H60.3388V15.3977H68.3842C68.3842 14.6591 68.2365 14 67.9411 13.4205C67.6513 12.8409 67.2365 12.3835 66.6967 12.0483C66.1626 11.7131 65.532 11.5455 64.8047 11.5455C64.0036 11.5455 63.3104 11.7443 62.7251 12.142C62.1456 12.5341 61.6996 13.0455 61.3871 13.6761C61.0746 14.3068 60.9183 14.983 60.9183 15.7045V16.8636C60.9183 17.8523 61.0888 18.6903 61.4297 19.3778C61.7763 20.0597 62.2564 20.5795 62.87 20.9375C63.4837 21.2898 64.1967 21.4659 65.0092 21.4659C65.5376 21.4659 66.0149 21.392 66.4411 21.2443C66.8729 21.0909 67.245 20.8636 67.5575 20.5625C67.87 20.2557 68.1115 19.875 68.282 19.4205L70.2251 19.9659C70.0206 20.625 69.6768 21.2045 69.1939 21.7045C68.7109 22.1989 68.1143 22.5852 67.4041 22.8636C66.6939 23.1364 65.8956 23.2727 65.0092 23.2727ZM75.5007 5.54545V23H73.4893V5.54545H75.5007ZM85.9347 23V9.90909H87.8778V11.9545H88.0483C88.321 11.2557 88.7614 10.7131 89.3693 10.3267C89.9773 9.93466 90.7074 9.73864 91.5597 9.73864C92.4233 9.73864 93.142 9.93466 93.7159 10.3267C94.2955 10.7131 94.7472 11.2557 95.071 11.9545H95.2074C95.5426 11.2784 96.0455 10.7415 96.7159 10.3438C97.3864 9.94034 98.1903 9.73864 99.1278 9.73864C100.298 9.73864 101.256 10.1051 102 10.8381C102.744 11.5653 103.116 12.6989 103.116 14.2386V23H101.105V14.2386C101.105 13.2727 100.841 12.5824 100.312 12.1676C99.7841 11.7528 99.1619 11.5455 98.446 11.5455C97.5256 11.5455 96.8125 11.8239 96.3068 12.3807C95.8011 12.9318 95.5483 13.6307 95.5483 14.4773V23H93.5028V14.0341C93.5028 13.2898 93.2614 12.6903 92.7784 12.2358C92.2955 11.7756 91.6733 11.5455 90.9119 11.5455C90.3892 11.5455 89.9006 11.6847 89.446 11.9631C88.9972 12.2415 88.6335 12.6278 88.3551 13.1222C88.0824 13.6108 87.946 14.1761 87.946 14.8182V23H85.9347ZM112.283 23.2727C111.021 23.2727 109.933 22.9943 109.018 22.4375C108.109 21.875 107.408 21.0909 106.913 20.0852C106.425 19.0739 106.18 17.8977 106.18 16.5568C106.18 15.2159 106.425 14.0341 106.913 13.0114C107.408 11.983 108.095 11.1818 108.976 10.608C109.862 10.0284 110.896 9.73864 112.078 9.73864C112.76 9.73864 113.433 9.85227 114.098 10.0795C114.763 10.3068 115.368 10.6761 115.913 11.1875C116.459 11.6932 116.893 12.3636 117.217 13.1989C117.541 14.0341 117.703 15.0625 117.703 16.2841V17.1364H107.612V15.3977H115.658C115.658 14.6591 115.51 14 115.214 13.4205C114.925 12.8409 114.51 12.3835 113.97 12.0483C113.436 11.7131 112.805 11.5455 112.078 11.5455C111.277 11.5455 110.584 11.7443 109.999 12.142C109.419 12.5341 108.973 13.0455 108.661 13.6761C108.348 14.3068 108.192 14.983 108.192 15.7045V16.8636C108.192 17.8523 108.362 18.6903 108.703 19.3778C109.05 20.0597 109.53 20.5795 110.143 20.9375C110.757 21.2898 111.47 21.4659 112.283 21.4659C112.811 21.4659 113.288 21.392 113.714 21.2443C114.146 21.0909 114.518 20.8636 114.831 20.5625C115.143 20.2557 115.385 19.875 115.555 19.4205L117.499 19.9659C117.294 20.625 116.95 21.2045 116.467 21.7045C115.984 22.1989 115.388 22.5852 114.678 22.8636C113.967 23.1364 113.169 23.2727 112.283 23.2727ZM120.763 23V9.90909H122.774V23H120.763ZM121.786 7.72727C121.393 7.72727 121.055 7.59375 120.771 7.3267C120.493 7.05966 120.354 6.73864 120.354 6.36364C120.354 5.98864 120.493 5.66761 120.771 5.40057C121.055 5.13352 121.393 5 121.786 5C122.178 5 122.513 5.13352 122.791 5.40057C123.075 5.66761 123.217 5.98864 123.217 6.36364C123.217 6.73864 123.075 7.05966 122.791 7.3267C122.513 7.59375 122.178 7.72727 121.786 7.72727ZM126.458 23V9.90909H128.401V11.8864H128.538C128.776 11.2386 129.208 10.7131 129.833 10.3097C130.458 9.90625 131.163 9.70454 131.947 9.70454C132.094 9.70454 132.279 9.70739 132.501 9.71307C132.722 9.71875 132.89 9.72727 133.004 9.73864V11.7841C132.935 11.767 132.779 11.7415 132.535 11.7074C132.296 11.6676 132.043 11.6477 131.776 11.6477C131.14 11.6477 130.572 11.7812 130.072 12.0483C129.577 12.3097 129.185 12.6733 128.896 13.1392C128.612 13.5994 128.469 14.125 128.469 14.7159V23H126.458ZM139.24 23.3068C138.411 23.3068 137.658 23.1506 136.982 22.8381C136.305 22.5199 135.768 22.0625 135.371 21.4659C134.973 20.8636 134.774 20.1364 134.774 19.2841C134.774 18.5341 134.922 17.9261 135.217 17.4602C135.513 16.9886 135.908 16.6193 136.402 16.3523C136.896 16.0852 137.442 15.8864 138.038 15.7557C138.641 15.6193 139.246 15.5114 139.854 15.4318C140.649 15.3295 141.294 15.2528 141.788 15.2017C142.288 15.1449 142.652 15.0511 142.879 14.9205C143.112 14.7898 143.229 14.5625 143.229 14.2386V14.1705C143.229 13.3295 142.999 12.6761 142.538 12.2102C142.084 11.7443 141.393 11.5114 140.467 11.5114C139.507 11.5114 138.754 11.7216 138.209 12.142C137.663 12.5625 137.28 13.0114 137.058 13.4886L135.149 12.8068C135.49 12.0114 135.945 11.392 136.513 10.9489C137.087 10.5 137.712 10.1875 138.388 10.0114C139.07 9.82955 139.74 9.73864 140.399 9.73864C140.82 9.73864 141.303 9.78977 141.848 9.89204C142.399 9.98864 142.93 10.1903 143.442 10.4972C143.959 10.804 144.388 11.267 144.729 11.8864C145.07 12.5057 145.24 13.3352 145.24 14.375V23H143.229V21.2273H143.126C142.99 21.5114 142.763 21.8153 142.445 22.1392C142.126 22.4631 141.703 22.7386 141.175 22.9659C140.646 23.1932 140.001 23.3068 139.24 23.3068ZM139.547 21.5C140.342 21.5 141.013 21.3438 141.558 21.0312C142.109 20.7188 142.524 20.3153 142.803 19.821C143.087 19.3267 143.229 18.8068 143.229 18.2614V16.4205C143.143 16.5227 142.956 16.6165 142.666 16.7017C142.382 16.7812 142.053 16.8523 141.678 16.9148C141.308 16.9716 140.947 17.0227 140.595 17.0682C140.249 17.108 139.967 17.142 139.751 17.1705C139.229 17.2386 138.74 17.3494 138.286 17.5028C137.837 17.6506 137.473 17.875 137.195 18.1761C136.922 18.4716 136.786 18.875 136.786 19.3864C136.786 20.0852 137.044 20.6136 137.561 20.9716C138.084 21.3239 138.746 21.5 139.547 21.5Z" fill="white"/>
<path d="M153.182 21.3636L153.318 17.6136L150.148 19.625L149.33 18.1932L152.67 16.4545L149.33 14.7159L150.148 13.2841L153.318 15.2955L153.182 11.5455H154.818L154.682 15.2955L157.852 13.2841L158.67 14.7159L155.33 16.4545L158.67 18.1932L157.852 19.625L154.682 17.6136L154.818 21.3636H153.182Z" fill="#C41067"/>
</svg>
