
<svg width="135" height="20" viewBox="0 0 135 20" fill="none" xmlns="http://www.w3.org/2000/svg">
<path d="M5.9227 19.54C5.13603 19.54 4.40936 19.4133 3.7427 19.16C3.07603 18.9067 2.5027 18.5533 2.0227 18.1C1.5427 17.66 1.1827 17.14 0.942695 16.54L3.0227 15.68C3.20936 16.1867 3.54936 16.6067 4.0427 16.94C4.54936 17.2733 5.16936 17.44 5.9027 17.44C6.47603 17.44 6.98936 17.3267 7.4427 17.1C7.89603 16.8867 8.25603 16.5667 8.5227 16.14C8.78936 15.7267 8.9227 15.2267 8.9227 14.64V12.2L9.3227 12.66C8.94936 13.3533 8.42936 13.88 7.7627 14.24C7.10936 14.6 6.36936 14.78 5.5427 14.78C4.5427 14.78 3.6427 14.5467 2.8427 14.08C2.0427 13.6133 1.40936 12.9733 0.942695 12.16C0.489362 11.3467 0.262695 10.4333 0.262695 9.42C0.262695 8.39333 0.489362 7.48 0.942695 6.68C1.40936 5.88 2.03603 5.24667 2.8227 4.78C3.60936 4.31333 4.50936 4.08 5.5227 4.08C6.34936 4.08 7.0827 4.26 7.7227 4.62C8.37603 4.96667 8.90936 5.47333 9.3227 6.14L9.0227 6.7V4.32H11.1627V14.64C11.1627 15.5733 10.936 16.4067 10.4827 17.14C10.0427 17.8867 9.42936 18.4733 8.6427 18.9C7.85603 19.3267 6.94936 19.54 5.9227 19.54ZM5.8027 12.68C6.4027 12.68 6.93603 12.54 7.4027 12.26C7.86936 11.9667 8.23603 11.58 8.5027 11.1C8.7827 10.6067 8.9227 10.0533 8.9227 9.44C8.9227 8.82667 8.7827 8.27333 8.5027 7.78C8.2227 7.28667 7.84936 6.9 7.3827 6.62C6.91603 6.32667 6.38936 6.18 5.8027 6.18C5.18936 6.18 4.6427 6.32667 4.1627 6.62C3.6827 6.9 3.3027 7.28667 3.0227 7.78C2.75603 8.26 2.6227 8.81333 2.6227 9.44C2.6227 10.04 2.75603 10.5867 3.0227 11.08C3.3027 11.5733 3.6827 11.9667 4.1627 12.26C4.6427 12.54 5.18936 12.68 5.8027 12.68Z" fill="white"/>
<path d="M17.0482 15.38C16.3148 15.38 15.6682 15.2533 15.1082 15C14.5615 14.7333 14.1348 14.3733 13.8282 13.92C13.5215 13.4533 13.3682 12.9067 13.3682 12.28C13.3682 11.6933 13.4948 11.1667 13.7482 10.7C14.0148 10.2333 14.4215 9.84 14.9682 9.52C15.5148 9.2 16.2015 8.97333 17.0282 8.84L20.7882 8.22V10L17.4682 10.58C16.8682 10.6867 16.4282 10.88 16.1482 11.16C15.8682 11.4267 15.7282 11.7733 15.7282 12.2C15.7282 12.6133 15.8815 12.9533 16.1882 13.22C16.5082 13.4733 16.9148 13.6 17.4082 13.6C18.0215 13.6 18.5548 13.4667 19.0082 13.2C19.4748 12.9333 19.8348 12.58 20.0882 12.14C20.3415 11.6867 20.4682 11.1867 20.4682 10.64V7.86C20.4682 7.32667 20.2682 6.89333 19.8682 6.56C19.4815 6.21333 18.9615 6.04 18.3082 6.04C17.7082 6.04 17.1815 6.2 16.7282 6.52C16.2882 6.82667 15.9615 7.22667 15.7482 7.72L13.8682 6.78C14.0682 6.24667 14.3948 5.78 14.8482 5.38C15.3015 4.96667 15.8282 4.64667 16.4282 4.42C17.0415 4.19333 17.6882 4.08 18.3682 4.08C19.2215 4.08 19.9748 4.24 20.6282 4.56C21.2948 4.88 21.8082 5.32667 22.1682 5.9C22.5415 6.46 22.7282 7.11333 22.7282 7.86V15.14H20.5682V13.18L21.0282 13.24C20.7748 13.68 20.4482 14.06 20.0482 14.38C19.6615 14.7 19.2148 14.9467 18.7082 15.12C18.2148 15.2933 17.6615 15.38 17.0482 15.38Z" fill="white"/>
<path d="M31.1507 15.38C30.3107 15.38 29.544 15.2067 28.8507 14.86C28.1707 14.5133 27.644 14.0133 27.2707 13.36L27.5307 12.94V15.14H25.3707V0H27.6307V6.56L27.2707 6.04C27.6707 5.42667 28.204 4.94667 28.8707 4.6C29.5373 4.25333 30.2973 4.08 31.1507 4.08C32.1773 4.08 33.0973 4.32667 33.9107 4.82C34.7373 5.31333 35.384 5.98667 35.8507 6.84C36.3307 7.69333 36.5707 8.65333 36.5707 9.72C36.5707 10.7867 36.3307 11.7467 35.8507 12.6C35.384 13.4533 34.744 14.1333 33.9307 14.64C33.1173 15.1333 32.1907 15.38 31.1507 15.38ZM30.9307 13.28C31.5707 13.28 32.1373 13.1267 32.6307 12.82C33.124 12.5133 33.5107 12.0933 33.7907 11.56C34.084 11.0133 34.2307 10.4 34.2307 9.72C34.2307 9.04 34.084 8.43333 33.7907 7.9C33.5107 7.36667 33.124 6.94667 32.6307 6.64C32.1373 6.33333 31.5707 6.18 30.9307 6.18C30.304 6.18 29.7373 6.33333 29.2307 6.64C28.7373 6.94667 28.344 7.36667 28.0507 7.9C27.7707 8.43333 27.6307 9.04 27.6307 9.72C27.6307 10.4 27.7707 11.0133 28.0507 11.56C28.344 12.0933 28.7373 12.5133 29.2307 12.82C29.7373 13.1267 30.304 13.28 30.9307 13.28Z" fill="white"/>
<path d="M38.7691 15.14V4.32H40.9291V6.5L40.7291 6.18C40.9691 5.47333 41.3558 4.96667 41.8891 4.66C42.4224 4.34 43.0624 4.18 43.8091 4.18H44.4691V6.24H43.5291C42.7824 6.24 42.1758 6.47333 41.7091 6.94C41.2558 7.39333 41.0291 8.04667 41.0291 8.9V15.14H38.7691Z" fill="white"/>
<path d="M46.0152 15.14V4.32H48.2752V15.14H46.0152ZM46.0152 2.84V0.239999H48.2752V2.84H46.0152Z" fill="white"/>
<path d="M55.9975 15.38C54.9175 15.38 53.9575 15.1333 53.1175 14.64C52.2909 14.1333 51.6442 13.4533 51.1775 12.6C50.7109 11.7333 50.4775 10.7667 50.4775 9.7C50.4775 8.60667 50.7109 7.64 51.1775 6.8C51.6575 5.96 52.2975 5.3 53.0975 4.82C53.8975 4.32667 54.8042 4.08 55.8175 4.08C56.6309 4.08 57.3575 4.22 57.9975 4.5C58.6375 4.78 59.1775 5.16667 59.6175 5.66C60.0575 6.14 60.3909 6.69333 60.6175 7.32C60.8575 7.94667 60.9775 8.61333 60.9775 9.32C60.9775 9.49333 60.9709 9.67333 60.9575 9.86C60.9442 10.0467 60.9175 10.22 60.8775 10.38H52.2575V8.58H59.5975L58.5175 9.4C58.6509 8.74667 58.6042 8.16667 58.3775 7.66C58.1642 7.14 57.8309 6.73333 57.3775 6.44C56.9375 6.13333 56.4175 5.98 55.8175 5.98C55.2175 5.98 54.6842 6.13333 54.2175 6.44C53.7509 6.73333 53.3909 7.16 53.1375 7.72C52.8842 8.26667 52.7842 8.93333 52.8375 9.72C52.7709 10.4533 52.8709 11.0933 53.1375 11.64C53.4175 12.1867 53.8042 12.6133 54.2975 12.92C54.8042 13.2267 55.3775 13.38 56.0175 13.38C56.6709 13.38 57.2242 13.2333 57.6775 12.94C58.1442 12.6467 58.5109 12.2667 58.7775 11.8L60.6175 12.7C60.4042 13.2067 60.0709 13.6667 59.6175 14.08C59.1775 14.48 58.6442 14.8 58.0175 15.04C57.4042 15.2667 56.7309 15.38 55.9975 15.38Z" fill="white"/>
<path d="M63.1832 15.14V0H65.4432V15.14H63.1832Z" fill="white"/>
<path d="M71.5816 15.14V4.32H73.7416V6.66L73.4616 6.3C73.6883 5.56667 74.1016 5.01333 74.7016 4.64C75.3016 4.26667 75.9883 4.08 76.7616 4.08C77.6283 4.08 78.3949 4.31333 79.0616 4.78C79.7416 5.23333 80.1949 5.84 80.4216 6.6L79.7816 6.66C80.1016 5.79333 80.5883 5.14667 81.2416 4.72C81.9083 4.29333 82.6683 4.08 83.5216 4.08C84.2683 4.08 84.9416 4.25333 85.5416 4.6C86.1549 4.94667 86.6416 5.42667 87.0016 6.04C87.3616 6.65333 87.5416 7.35333 87.5416 8.14V15.14H85.2816V8.76C85.2816 8.21333 85.1816 7.75333 84.9816 7.38C84.7949 6.99333 84.5283 6.7 84.1816 6.5C83.8483 6.28667 83.4549 6.18 83.0016 6.18C82.5483 6.18 82.1483 6.28667 81.8016 6.5C81.4549 6.7 81.1816 6.99333 80.9816 7.38C80.7816 7.76667 80.6816 8.22667 80.6816 8.76V15.14H78.4416V8.76C78.4416 8.21333 78.3416 7.75333 78.1416 7.38C77.9549 6.99333 77.6883 6.7 77.3416 6.5C77.0083 6.28667 76.6083 6.18 76.1416 6.18C75.6883 6.18 75.2883 6.28667 74.9416 6.5C74.5949 6.7 74.3216 6.99333 74.1216 7.38C73.9349 7.76667 73.8416 8.22667 73.8416 8.76V15.14H71.5816Z" fill="white"/>
<path d="M95.0405 15.38C93.9605 15.38 93.0005 15.1333 92.1605 14.64C91.3338 14.1333 90.6872 13.4533 90.2205 12.6C89.7538 11.7333 89.5205 10.7667 89.5205 9.7C89.5205 8.60667 89.7538 7.64 90.2205 6.8C90.7005 5.96 91.3405 5.3 92.1405 4.82C92.9405 4.32667 93.8472 4.08 94.8605 4.08C95.6738 4.08 96.4005 4.22 97.0405 4.5C97.6805 4.78 98.2205 5.16667 98.6605 5.66C99.1005 6.14 99.4338 6.69333 99.6605 7.32C99.9005 7.94667 100.021 8.61333 100.021 9.32C100.021 9.49333 100.014 9.67333 100.001 9.86C99.9872 10.0467 99.9605 10.22 99.9205 10.38H91.3005V8.58H98.6405L97.5605 9.4C97.6938 8.74667 97.6472 8.16667 97.4205 7.66C97.2072 7.14 96.8738 6.73333 96.4205 6.44C95.9805 6.13333 95.4605 5.98 94.8605 5.98C94.2605 5.98 93.7272 6.13333 93.2605 6.44C92.7938 6.73333 92.4338 7.16 92.1805 7.72C91.9272 8.26667 91.8272 8.93333 91.8805 9.72C91.8138 10.4533 91.9138 11.0933 92.1805 11.64C92.4605 12.1867 92.8472 12.6133 93.3405 12.92C93.8472 13.2267 94.4205 13.38 95.0605 13.38C95.7138 13.38 96.2672 13.2333 96.7205 12.94C97.1872 12.6467 97.5538 12.2667 97.8205 11.8L99.6605 12.7C99.4472 13.2067 99.1138 13.6667 98.6605 14.08C98.2205 14.48 97.6872 14.8 97.0605 15.04C96.4472 15.2667 95.7738 15.38 95.0405 15.38Z" fill="white"/>
<path d="M102.226 15.14V4.32H104.486V15.14H102.226ZM102.226 2.84V0.239999H104.486V2.84H102.226Z" fill="white"/>
<path d="M107.128 15.14V4.32H109.288V6.5L109.088 6.18C109.328 5.47333 109.715 4.96667 110.248 4.66C110.782 4.34 111.422 4.18 112.168 4.18H112.828V6.24H111.888C111.142 6.24 110.535 6.47333 110.068 6.94C109.615 7.39333 109.388 8.04667 109.388 8.9V15.14H107.128Z" fill="white"/>
<path d="M117.615 15.38C116.881 15.38 116.235 15.2533 115.675 15C115.128 14.7333 114.701 14.3733 114.395 13.92C114.088 13.4533 113.935 12.9067 113.935 12.28C113.935 11.6933 114.061 11.1667 114.315 10.7C114.581 10.2333 114.988 9.84 115.535 9.52C116.081 9.2 116.768 8.97333 117.595 8.84L121.355 8.22V10L118.035 10.58C117.435 10.6867 116.995 10.88 116.715 11.16C116.435 11.4267 116.295 11.7733 116.295 12.2C116.295 12.6133 116.448 12.9533 116.755 13.22C117.075 13.4733 117.481 13.6 117.975 13.6C118.588 13.6 119.121 13.4667 119.575 13.2C120.041 12.9333 120.401 12.58 120.655 12.14C120.908 11.6867 121.035 11.1867 121.035 10.64V7.86C121.035 7.32667 120.835 6.89333 120.435 6.56C120.048 6.21333 119.528 6.04 118.875 6.04C118.275 6.04 117.748 6.2 117.295 6.52C116.855 6.82667 116.528 7.22667 116.315 7.72L114.435 6.78C114.635 6.24667 114.961 5.78 115.415 5.38C115.868 4.96667 116.395 4.64667 116.995 4.42C117.608 4.19333 118.255 4.08 118.935 4.08C119.788 4.08 120.541 4.24 121.195 4.56C121.861 4.88 122.375 5.32667 122.735 5.9C123.108 6.46 123.295 7.11333 123.295 7.86V15.14H121.135V13.18L121.595 13.24C121.341 13.68 121.015 14.06 120.615 14.38C120.228 14.7 119.781 14.9467 119.275 15.12C118.781 15.2933 118.228 15.38 117.615 15.38Z" fill="white"/>
<path d="M129.3 13.48L127.84 12.42L129.38 10.34L127 9.54L127.56 7.82L129.94 8.62V6H131.76V8.62L134.14 7.82L134.7 9.54L132.32 10.34L133.88 12.42L132.42 13.48L130.86 11.4L129.3 13.48Z" fill="#C41067"/>
</svg>
